<svg width="93" height="75" viewBox="0 0 93 75" fill="none" xmlns="http://www.w3.org/2000/svg">
<g filter="url(#filter0_d_65_364)">
<path d="M18.7152 49.3863L16.6157 39.3696H76.5V54.4726L18.7152 49.3863Z" fill="#EAEAEA" stroke="black"/>
<path d="M35.0645 50.5682C35.1435 50.2135 35.9504 49.2754 36.3184 49.1938C36.5788 49.136 37.465 49.3449 37.5569 49.0239C37.6969 48.5351 37.5573 47.8543 37.5724 47.3559C37.5904 46.7646 39.0245 46.6471 39.5231 46.3984" stroke="black"/>
<path d="M37.5725 46.9544C37.5086 46.4448 37.1871 45.8012 37.0151 45.2865" stroke="black"/>
<path d="M56.5215 40.2827C56.1548 41.502 54.7993 41.2819 55.4068 42.6456C55.8899 43.7299 55.4798 43.7509 55.1282 44.4525" stroke="black"/>
<path d="M55.4069 42.7845C55.4623 43.2268 56.6814 43.3405 57.0788 43.3405C57.6712 43.3405 57.686 43.7179 57.9148 44.1745" stroke="black"/>
<path d="M56.2429 40.8387C56.8811 40.8387 56.8002 40.5652 56.8002 40.0047" stroke="black"/>
<path d="M30.0485 45.5644C30.7939 45.3166 32.3443 43.6128 33.1138 43.9583C34.1554 44.4259 33.8601 44.861 35.0644 44.1745" stroke="black"/>
<path d="M44.5391 45.5645C45.047 45.5082 45.4627 45.0085 45.9324 45.0085C46.5514 45.0085 46.4691 46.105 46.9232 46.3521C47.8585 46.861 48.7786 46.1006 49.555 45.8424" stroke="black"/>
<path d="M64.8815 43.8965C66.3737 43.5988 65.9685 42.2415 67.3894 43.6185C68.6932 44.882 69.326 44.1886 70.4547 43.0626" stroke="black"/>
<path d="M22.803 46.0254C22.9543 44.3646 24.425 45.8783 25.235 45.8783C25.6142 45.8783 25.8457 45.4497 26.1112 45.233C26.3999 44.9974 26.8838 44.8381 27.2249 44.702" stroke="black"/>
<path d="M72.0395 51.5293C72.0395 50.9173 71.8545 49.8512 71.1517 49.8345C69.8716 49.804 69.7348 49.7089 68.892 48.866" stroke="black"/>
<path d="M16.5 31.6304V20.4325L70.8845 12.5207L76.3374 31.6304H16.5Z" fill="#EAEAEA" stroke="black"/>
<path d="M19.1586 31.0575C20.5081 30.9079 21.1628 29.3799 22.732 29.3799C24.2015 29.3799 25.0443 29.7687 25.0443 28.1218" stroke="black"/>
<path d="M24.2035 29.7994C24.0745 28.7703 22.5219 28.1829 22.5219 26.8636" stroke="black"/>
<path d="M54.4729 31.4769C54.4729 30.8994 54.0915 28.5882 54.8933 28.5412C57.0486 28.4147 53.3035 27.4534 52.7913 27.283" stroke="black"/>
<path d="M27.2618 25.5494C28.1899 25.5494 28.5683 25.2375 29.3673 24.839C30.4964 24.2758 30.3695 26.5979 31.2251 26.476C31.969 26.37 31.802 25.3241 32.7732 25.6111C33.2864 25.7628 33.6911 25.8274 34.2284 25.8274" stroke="black"/>
<path d="M44.8176 27.2173C45.5458 27.1408 47.4462 25.7006 48.0068 26.2598C48.558 26.8096 48.3725 27.0219 49.2763 26.6613" stroke="black"/>
<path d="M52.8989 22.4915C53.7248 21.9313 54.5133 21.3295 55.5308 21.1634C56.0299 21.0819 57.9149 21.2071 57.9149 20.8236" stroke="black"/>
<path d="M36.5107 28.2337C36.9874 26.9857 36.8343 25.7054 37.8455 24.6967C38.5516 23.9923 38.2048 23.2977 37.8209 22.4666C37.3791 21.51 38.0506 21.3272 38.8691 20.8818" stroke="black"/>
<path d="M64.516 25.7341C63.7352 25.9288 61.8182 26.5682 61.7155 27.5312C61.707 27.6106 61.8315 28.1329 61.7318 28.1684C60.7243 28.5273 58.5498 27.7851 57.5884 27.6456" stroke="black"/>
<path d="M66.9244 17.0198C66.864 17.503 66.0594 17.9098 66.1938 18.4809C66.4442 19.5448 68.8417 18.0311 68.7507 19.5767C68.678 20.814 68.2781 21.242 69.116 22.4989" stroke="black"/>
<path d="M68.3855 20.6725C67.5321 20.7258 67.2897 21.3468 67.2897 22.1336" stroke="black"/>
<path d="M47.1997 19.942C47.9826 20.0289 49.2995 21.4543 49.8378 22.0524C50.6387 22.9423 49.4021 24.6905 51.2177 24.6905" stroke="black"/>
</g>
<defs>
<filter id="filter0_d_65_364" x="0.9" y="0.862951" width="91.2" height="73.2555" filterUnits="userSpaceOnUse" color-interpolation-filters="sRGB">
<feFlood flood-opacity="0" result="BackgroundImageFix"/>
<feColorMatrix in="SourceAlpha" type="matrix" values="0 0 0 0 0 0 0 0 0 0 0 0 0 0 0 0 0 0 127 0" result="hardAlpha"/>
<feOffset dy="4"/>
<feGaussianBlur stdDeviation="7.55"/>
<feComposite in2="hardAlpha" operator="out"/>
<feColorMatrix type="matrix" values="0 0 0 0 0 0 0 0 0 0 0 0 0 0 0 0 0 0 1 0"/>
<feBlend mode="normal" in2="BackgroundImageFix" result="effect1_dropShadow_65_364"/>
<feBlend mode="normal" in="SourceGraphic" in2="effect1_dropShadow_65_364" result="shape"/>
</filter>
</defs>
</svg>
